<svg width="21" height="21" viewBox="0 0 21 21" fill="none" xmlns="http://www.w3.org/2000/svg">
<path id="Vector" d="M15.3198 0L13.8468 1.47298L16.2354 3.86149H15.625C9.30895 3.86149 4.16667 9.00378 4.16667 15.3198V16.3615H6.25V15.3198C6.25 10.1296 10.4348 5.94482 15.625 5.94482H16.2354L13.8468 8.33333L15.3198 9.80632L20.223 4.90316L15.3198 0ZM0 5.94482V6.98649V17.4032C0 19.1167 1.41149 20.5282 3.125 20.5282H17.7083C19.4218 20.5282 20.8333 19.1167 20.8333 17.4032V16.3615V15.3198H18.75V16.3615V17.4032C18.75 17.9917 18.2969 18.4448 17.7083 18.4448H3.125C2.53643 18.4448 2.08333 17.9917 2.08333 17.4032V6.98649V5.94482H0Z" fill="#FF8A01"/>
</svg>
